<svg xmlns="http://www.w3.org/2000/svg" xmlns:xlink="http://www.w3.org/1999/xlink" width="500" zoomAndPan="magnify" viewBox="0 0 375 374.999991" height="500" preserveAspectRatio="xMidYMid meet" version="1.2"><defs><clipPath id="2c5a8fc843"><path d="M 112.5 112.5 L 262.5 112.5 L 262.5 262.5 L 112.5 262.5 Z M 112.5 112.5 "/></clipPath></defs><g id="6d20abfc9f"><rect x="0" width="375" y="0" height="374.999991" style="fill:#ffffff;fill-opacity:1;stroke:none;"/><rect x="0" width="375" y="0" height="374.999991" style="fill:#ffffff;fill-opacity:1;stroke:none;"/><g clip-rule="nonzero" clip-path="url(#2c5a8fc843)"><path style=" stroke:none;fill-rule:nonzero;fill:#000000;fill-opacity:1;" d="M 250.734375 141.910156 L 221.324219 141.910156 L 221.324219 124.265625 C 221.324219 117.777344 216.046875 112.5 209.558594 112.5 L 165.441406 112.5 C 158.953125 112.5 153.675781 117.777344 153.675781 124.265625 L 153.675781 141.910156 L 124.265625 141.910156 C 117.777344 141.910156 112.5 147.1875 112.5 153.675781 C 112.5 158.789062 112.5 246.417969 112.5 250.734375 C 112.5 257.222656 117.777344 262.5 124.265625 262.5 L 250.734375 262.5 C 257.222656 262.5 262.5 257.222656 262.5 250.734375 C 262.5 246.4375 262.5 158.785156 262.5 153.675781 C 262.5 147.1875 257.222656 141.910156 250.734375 141.910156 Z M 159.558594 124.265625 C 159.558594 121.019531 162.199219 118.382812 165.441406 118.382812 L 209.558594 118.382812 C 212.800781 118.382812 215.441406 121.019531 215.441406 124.265625 L 215.441406 141.910156 L 209.558594 141.910156 L 209.558594 136.03125 C 209.558594 129.542969 204.28125 124.265625 197.792969 124.265625 L 177.207031 124.265625 C 170.71875 124.265625 165.441406 129.542969 165.441406 136.03125 L 165.441406 141.910156 L 159.558594 141.910156 Z M 203.675781 141.910156 L 171.324219 141.910156 L 171.324219 136.03125 C 171.324219 132.785156 173.960938 130.148438 177.207031 130.148438 L 197.792969 130.148438 C 201.039062 130.148438 203.675781 132.785156 203.675781 136.03125 Z M 124.265625 147.792969 C 137.65625 147.792969 238.023438 147.792969 250.734375 147.792969 C 253.980469 147.792969 256.617188 150.433594 256.617188 153.675781 L 256.617188 191.910156 C 256.617188 195.15625 253.980469 197.792969 250.734375 197.792969 L 200.734375 197.792969 L 200.734375 188.96875 C 200.734375 187.347656 199.417969 186.03125 197.792969 186.03125 L 177.207031 186.03125 C 175.582031 186.03125 174.265625 187.347656 174.265625 188.96875 L 174.265625 197.792969 L 124.265625 197.792969 C 121.019531 197.792969 118.382812 195.15625 118.382812 191.910156 L 118.382812 153.675781 C 118.382812 150.433594 121.019531 147.792969 124.265625 147.792969 Z M 180.148438 191.910156 L 194.851562 191.910156 L 194.851562 202.207031 C 194.851562 206.261719 191.554688 209.558594 187.5 209.558594 C 183.445312 209.558594 180.148438 206.261719 180.148438 202.207031 Z M 250.734375 256.617188 L 124.265625 256.617188 C 121.019531 256.617188 118.382812 253.980469 118.382812 250.734375 L 118.382812 202.09375 C 120.113281 203.097656 122.121094 203.675781 124.265625 203.675781 L 174.347656 203.675781 C 175.082031 210.285156 180.699219 215.441406 187.5 215.441406 C 194.300781 215.441406 199.917969 210.285156 200.652344 203.675781 L 250.734375 203.675781 C 252.878906 203.675781 254.886719 203.097656 256.617188 202.09375 L 256.617188 250.734375 C 256.617188 253.980469 253.980469 256.617188 250.734375 256.617188 Z M 250.734375 256.617188 "/></g><g style="fill:#000000;fill-opacity:1;"><g transform="translate(132.266598, 235.585854)"><path style="stroke:none" d="M 5.203125 -14 L 5.203125 -7.953125 L 13.953125 -7.953125 L 13.953125 -14 L 16.125 -14 L 16.125 0 L 13.953125 0 L 13.953125 -5.875 L 5.203125 -5.875 L 5.203125 0 L 3.046875 0 L 3.046875 -14 Z M 5.203125 -14 "/></g></g><g style="fill:#000000;fill-opacity:1;"><g transform="translate(151.41904, 235.585854)"><path style="stroke:none" d="M 11.421875 0 L 2.953125 0 L 2.953125 -2.078125 L 6.09375 -2.078125 L 6.09375 -11.921875 L 2.953125 -11.921875 L 2.953125 -14 L 11.421875 -14 L 11.421875 -11.921875 L 8.265625 -11.921875 L 8.265625 -2.078125 L 11.421875 -2.078125 Z M 11.421875 0 "/></g></g><g style="fill:#000000;fill-opacity:1;"><g transform="translate(165.793367, 235.585854)"><path style="stroke:none" d="M 14.921875 -9.640625 C 14.921875 -8.691406 14.628906 -7.835938 14.046875 -7.078125 C 13.472656 -6.328125 12.738281 -5.796875 11.84375 -5.484375 L 15.640625 0.015625 L 12.953125 0 L 9.40625 -5.203125 L 5.203125 -5.203125 L 5.203125 0 L 3.046875 0 L 3.046875 -14 L 10.421875 -14 C 11.203125 -14 11.929688 -13.8125 12.609375 -13.4375 C 13.296875 -13.0625 13.851562 -12.546875 14.28125 -11.890625 C 14.707031 -11.242188 14.921875 -10.492188 14.921875 -9.640625 Z M 9.90625 -11.921875 L 5.203125 -11.921875 L 5.203125 -7.28125 L 10.09375 -7.28125 C 10.570312 -7.28125 11.003906 -7.390625 11.390625 -7.609375 C 11.785156 -7.828125 12.09375 -8.113281 12.3125 -8.46875 C 12.53125 -8.832031 12.640625 -9.222656 12.640625 -9.640625 C 12.640625 -10.078125 12.515625 -10.46875 12.265625 -10.8125 C 12.023438 -11.164062 11.691406 -11.4375 11.265625 -11.625 C 10.847656 -11.820312 10.394531 -11.921875 9.90625 -11.921875 Z M 9.90625 -11.921875 "/></g></g><g style="fill:#000000;fill-opacity:1;"><g transform="translate(183.726292, 235.585854)"><path style="stroke:none" d="M 3.046875 -14 L 13.640625 -14 L 13.640625 -11.921875 L 5.203125 -11.921875 L 5.203125 -8.21875 L 12.546875 -8.21875 L 12.546875 -6.140625 L 5.203125 -6.140625 L 5.203125 -2.078125 L 13.640625 -2.078125 L 13.640625 0 L 3.046875 0 Z M 3.046875 -14 "/></g></g><g style="fill:#000000;fill-opacity:1;"><g transform="translate(199.959884, 235.585854)"><path style="stroke:none" d="M 4.3125 0.21875 C 3.707031 0.21875 3.253906 0.0820312 2.953125 -0.1875 C 2.648438 -0.457031 2.5 -0.820312 2.5 -1.28125 C 2.5 -1.664062 2.648438 -2.007812 2.953125 -2.3125 C 3.253906 -2.625 3.707031 -2.78125 4.3125 -2.78125 C 4.945312 -2.78125 5.410156 -2.640625 5.703125 -2.359375 C 6.003906 -2.085938 6.15625 -1.726562 6.15625 -1.28125 C 6.15625 -0.90625 6.003906 -0.5625 5.703125 -0.25 C 5.410156 0.0625 4.945312 0.21875 4.3125 0.21875 Z M 4.3125 0.21875 "/></g></g><g style="fill:#000000;fill-opacity:1;"><g transform="translate(208.616469, 235.585854)"><path style="stroke:none" d="M 11.421875 0 L 2.953125 0 L 2.953125 -2.078125 L 6.09375 -2.078125 L 6.09375 -11.921875 L 2.953125 -11.921875 L 2.953125 -14 L 11.421875 -14 L 11.421875 -11.921875 L 8.265625 -11.921875 L 8.265625 -2.078125 L 11.421875 -2.078125 Z M 11.421875 0 "/></g></g><g style="fill:#000000;fill-opacity:1;"><g transform="translate(222.990797, 235.585854)"><path style="stroke:none" d="M 17.765625 -7 C 17.765625 -5.988281 17.566406 -5.046875 17.171875 -4.171875 C 16.785156 -3.296875 16.238281 -2.53125 15.53125 -1.875 C 14.832031 -1.226562 14 -0.71875 13.03125 -0.34375 C 12.070312 0.0195312 11.015625 0.203125 9.859375 0.203125 C 8.710938 0.203125 7.65625 0.0195312 6.6875 -0.34375 C 5.71875 -0.71875 4.882812 -1.226562 4.1875 -1.875 C 3.488281 -2.53125 2.945312 -3.296875 2.5625 -4.171875 C 2.175781 -5.046875 1.984375 -5.988281 1.984375 -7 C 1.984375 -8.007812 2.175781 -8.953125 2.5625 -9.828125 C 2.945312 -10.703125 3.488281 -11.460938 4.1875 -12.109375 C 4.882812 -12.765625 5.71875 -13.273438 6.6875 -13.640625 C 7.65625 -14.015625 8.710938 -14.203125 9.859375 -14.203125 C 11.015625 -14.203125 12.070312 -14.015625 13.03125 -13.640625 C 14 -13.273438 14.832031 -12.765625 15.53125 -12.109375 C 16.238281 -11.460938 16.785156 -10.703125 17.171875 -9.828125 C 17.566406 -8.953125 17.765625 -8.007812 17.765625 -7 Z M 15.5625 -7 C 15.5625 -7.96875 15.316406 -8.835938 14.828125 -9.609375 C 14.335938 -10.378906 13.660156 -10.984375 12.796875 -11.421875 C 11.941406 -11.867188 10.960938 -12.09375 9.859375 -12.09375 C 8.742188 -12.09375 7.757812 -11.867188 6.90625 -11.421875 C 6.050781 -10.984375 5.382812 -10.378906 4.90625 -9.609375 C 4.425781 -8.835938 4.1875 -7.96875 4.1875 -7 C 4.1875 -6.03125 4.425781 -5.160156 4.90625 -4.390625 C 5.382812 -3.617188 6.050781 -3.007812 6.90625 -2.5625 C 7.757812 -2.125 8.742188 -1.90625 9.859375 -1.90625 C 10.960938 -1.90625 11.941406 -2.125 12.796875 -2.5625 C 13.660156 -3.007812 14.335938 -3.617188 14.828125 -4.390625 C 15.316406 -5.171875 15.5625 -6.039062 15.5625 -7 Z M 15.5625 -7 "/></g></g></g></svg>